<svg id="Camada_1" data-name="Camada 1" xmlns="http://www.w3.org/2000/svg" viewBox="0 0 485.59 188.44"><defs><style>.cls-1{fill:#348bcb;}.cls-2{fill:#4ead33;}</style></defs><title>Logotipo</title><path class="cls-1" d="M65.28,149.58c0-7.84,6.12-13.19,14.77-13.19A15.71,15.71,0,0,1,91,140.56l9-15.3q-2.52-1.65-4.88-2.88a25.31,25.31,0,0,0-4.79-1.91,34.39,34.39,0,0,0-5-1,41.72,41.72,0,0,0-5.53-.35,35.38,35.38,0,0,0-13.07,2.4A34.67,34.67,0,0,0,56,128a30.56,30.56,0,0,0-7.18,9.67,28.27,28.27,0,0,0,0,23.73A30.49,30.49,0,0,0,56,171.11a34.67,34.67,0,0,0,10.67,6.53A35.37,35.37,0,0,0,79.72,180a41.61,41.61,0,0,0,5.87-.39A30.49,30.49,0,0,0,91,178.38a33.38,33.38,0,0,0,5.14-2.22,48.94,48.94,0,0,0,5.22-3.27l-9.76-15.21a16,16,0,0,1-11.67,5c-8.64,0-14.6-5.28-14.6-13.11m73.35,12.89H125.88l6.38-15.58Zm5.66,16.27h16.43l-22.09-58.21H125.88l-22.09,58.21h16.29L122,173.5h20.37Zm47.92-18.85a4.38,4.38,0,0,1-1.79,3.92c-1.19.82-3.09,1.22-5.71,1.22h-1.22V154.91h1.22q7.5,0,7.5,5m-2.27-21.73a3.86,3.86,0,0,1-1.22,3.23,6.54,6.54,0,0,1-4,1h-1.22v-8.12h1.22a6.79,6.79,0,0,1,4,.92,3.5,3.5,0,0,1,1.22,3M208.71,168a19.85,19.85,0,0,0,1.4-7.59,18.51,18.51,0,0,0-1.66-8.29c-1.11-2.21-3.48-3.94-6.48-5.41,2.91-3.08,5.23-6.63,5.23-10.65a15,15,0,0,0-1.44-6.46,14.78,14.78,0,0,0-4.15-5.23,16.77,16.77,0,0,0-5.45-2.92,24.42,24.42,0,0,0-7.29-.92H165.51v58.21h23.37a33.52,33.52,0,0,0,9.49-1.27,17.7,17.7,0,0,0,6.33-3.67,15.94,15.94,0,0,0,4-5.8m49.07-18.24a12,12,0,0,1-1,4.77A12.31,12.31,0,0,1,250.3,161a12.31,12.31,0,0,1-9.53,0,12.25,12.25,0,0,1-6.51-6.51,12.31,12.31,0,0,1,0-9.53,12.22,12.22,0,0,1,6.51-6.52,12.31,12.31,0,0,1,9.53,0,12.28,12.28,0,0,1,6.52,6.52,11.87,11.87,0,0,1,1,4.76m18.36,0a29.74,29.74,0,0,0-2.4-11.93,30.72,30.72,0,0,0-16.31-16.27,30.65,30.65,0,0,0-23.78,0,30.72,30.72,0,0,0-16.31,16.27,30.75,30.75,0,0,0,0,23.82A30.61,30.61,0,0,0,233.65,178a30.65,30.65,0,0,0,23.78,0,30.61,30.61,0,0,0,16.31-16.31,29.83,29.83,0,0,0,2.4-11.89m36.05,29L335,120.36H316.33l-11.15,28.76-11.27-28.76H275.5l22.64,58.38Zm27.34,0,34.08,0V165.45l-17,0V155.8h16.32V143.2H356.61v-9.31h16V120.36H339.53Zm71.13-36.37a7.27,7.27,0,0,1-1.15,4,8.38,8.38,0,0,1-3.22,2.89,8.28,8.28,0,0,1-2.55.92,28.75,28.75,0,0,1-3.76.17h-1.22v-16H400a29.26,29.26,0,0,1,3.76.16,8.34,8.34,0,0,1,2.55.93,7.32,7.32,0,0,1,3.22,2.88,7.88,7.88,0,0,1,1.15,4.09m19.09,36.37-10.83-19c.76-.64,1.33-1,2.34-1.87.46-.44.87-.84,1.22-1.22l1-1a8.17,8.17,0,0,0,.87-1.19,17.89,17.89,0,0,0,2.45-5.25,21.37,21.37,0,0,0,.88-6,21.67,21.67,0,0,0-2.32-9.67,22.9,22.9,0,0,0-6.26-7.83,23.35,23.35,0,0,0-7.53-3.94,33.13,33.13,0,0,0-9.8-1.31h-19.8v58.38h16.78V160.93l11.94,17.81Zm39.17-29a15,15,0,0,1-1.1,5.77,13.38,13.38,0,0,1-7.73,7.52,16,16,0,0,1-5.92,1.06h-2V135.3h2a15.45,15.45,0,0,1,5.92,1.11,14.33,14.33,0,0,1,4.67,3,13.66,13.66,0,0,1,3.06,4.56,15,15,0,0,1,1.1,5.77m12.53,15.43a31.09,31.09,0,0,0,4-15.64,32.87,32.87,0,0,0-1.22-9,31.14,31.14,0,0,0-3.41-7.82,25.1,25.1,0,0,0-5.2-6.07,20.55,20.55,0,0,0-6.6-3.76q-7.43-2.53-19.13-2.53H435.05v58.28h14.86a85,85,0,0,0,11.66-.7,34.45,34.45,0,0,0,8.74-2.27,20.64,20.64,0,0,0,6.38-4.15,27,27,0,0,0,4.76-6.34m28.87.24V155.8h16V143.2h-16v-9.31h16.2V120.36H493.24v58.38l34.08,0V165.45Z" transform="translate(-46.19 -32.75)"/><path class="cls-2" d="M346.69,210.75a18.12,18.12,0,0,1-1.65,6.57,8.45,8.45,0,0,0,5.11,1.53,10.56,10.56,0,0,0,5.66-1.53,16.13,16.13,0,0,1-1.94-6.63V199.37L366.4,214a21.84,21.84,0,0,1,3,4.5,13.6,13.6,0,0,0,2.56.31,8.7,8.7,0,0,0,5-1.53,17.78,17.78,0,0,1-.91-5V193.77a18.23,18.23,0,0,1,1.58-7.05,8.08,8.08,0,0,0-5.17-1.65,9.56,9.56,0,0,0-5.66,1.65,16.36,16.36,0,0,1,2,7.12v10.28l-11-12.29a27.42,27.42,0,0,1-4.32-6.09,5.74,5.74,0,0,0-3.16-.67c-2.5,0-5.54.67-6.57,1.53,0,0,2.92,3.28,2.92,7.24Zm-28.55-37.82,0,.07c0,.63,0,.15,0-.07m5.76-14.63-5.74,14.58s0,.12,0,.25c.21,5.91.22,11.81.59,17.78a135.57,135.57,0,0,0,2,15.54c.42,2.28-1,2.82-.35,5,.62,2-1.76,4.33-.71,6.12-.05-.09,8.73,1.45,9,1.09,1.45-1.8,15.81,4.32,16,1.92.11-1.68-12.3-16.71-12.86-18.31a93,93,0,0,1-2.63-8.95c-.67-2.82-1.53-5.59-2.18-8.41a106.77,106.77,0,0,1-3.08-26.65m-5.76,14.63,0-.05c0-.08,0,0,0,.05m21.74-56.79a.13.13,0,0,1,.05.07c0-.11,0-.09-.05-.07m-2.73,23.44a5.42,5.42,0,0,0,.23-1.12v-15l-.47,3a66.92,66.92,0,0,0,.24,13.13m-2.07-8.47c.19,1.67.46,3.44.83,5.46a67.44,67.44,0,0,0,.35-8.47Zm-1.26,3.18c.2.92.43,1.86.7,2.86a33.15,33.15,0,0,0-.06-4.48ZM291.38,193v18.14a13.35,13.35,0,0,1-1.52,6.14l.42,1,8.77-.25h7.06a42.1,42.1,0,0,1,5,.8,9.88,9.88,0,0,0,1.1-4.51,8.09,8.09,0,0,0-1.1-4.26c-2.61,1-4.56,1.65-6.32,1.65H299.9V193a16.63,16.63,0,0,1,1.52-6.44,11.18,11.18,0,0,0-5.72-1.53,11.7,11.7,0,0,0-5.9,1.53,16.13,16.13,0,0,1,1.58,6.44M239.91,198c0,9.5-4.75,14.12-11.2,14.12s-11.44-5.23-11.44-14.42c0-9.49,4.75-14.06,11.2-14.06s11.44,5.11,11.44,14.36m9.61-.42a21.85,21.85,0,0,0-4.25-13.62c-.53,0-1.05.07-1.58.07a29.86,29.86,0,0,1-11.89-2.4,31.38,31.38,0,0,1-7.68-4.68c-9.1,1.94-16.4,9.3-16.4,21.3,0,13.69,9.55,21.17,20.57,21.17,11.25,0,21.23-7.79,21.23-21.84m16.92-5.72a26.77,26.77,0,0,1-4.32-6.09,5.78,5.78,0,0,0-3.17-.67c-2.49,0-5.54.67-6.57,1.53,0,0,2.92,3.28,2.92,7.24v16.91a18.2,18.2,0,0,1-1.64,6.57,8.43,8.43,0,0,0,5.11,1.53,10.56,10.56,0,0,0,5.66-1.53,16.07,16.07,0,0,1-1.95-6.63V199.37L275,214a22.35,22.35,0,0,1,3,4.5,13.4,13.4,0,0,0,2.55.31,8.66,8.66,0,0,0,5-1.53,17.78,17.78,0,0,1-.91-5V193.77a18.23,18.23,0,0,1,1.58-7.05,8.07,8.07,0,0,0-5.17-1.65,9.56,9.56,0,0,0-5.66,1.65,16.3,16.3,0,0,1,2,7.12v10.28Zm72.05-75.29h-.25a.14.14,0,0,1,0,.06c.07.06.15,0,.23-.06m.35-.51c-.12.15-.24.38-.35.51h1.28l-.21-.21c-.09.12-.18.2-.27,0l-.45-.31m33.66-5.49a1.74,1.74,0,0,0-.25-.11c0,.34,0,.59,0,.84a11.67,11.67,0,0,0-2.47-3.92c.46.24.91.48,1.36.74a6.18,6.18,0,0,0,.62,1.25c.17.31.41.69.7,1.2M370.89,102H370a4.59,4.59,0,0,0-2.66-1.89,7.94,7.94,0,0,0-1-.2c.22-.06.45-.12.68-.16a3.26,3.26,0,0,1,2.61.4,3.66,3.66,0,0,1,1.2,1.86m-1.5,0c-3.08,0-4.78.27-5.5.91a5,5,0,0,0,.51.36l-.78.13c-.71-.19-1.42-.35-2.13-.49l-.28-.8.09,0a20.06,20.06,0,0,1,3.35-.87,6.1,6.1,0,0,1,4.74.8m-5.1,3.19.95.3-.29.14a2.69,2.69,0,0,0-.66-.44m-4.26-.39c-.25-.09-.52-.19-.8-.27a4.63,4.63,0,0,0-.3-.4l.91.11c0,.16.11.34.19.56M359,99.81c-.34.08-.64.16-.91.25a14.87,14.87,0,0,0-3.71-4.74,12.65,12.65,0,0,0-4.91-2.65,23.77,23.77,0,0,0-3.67-1.27,2.13,2.13,0,0,0-.93-.48c0,.09,0,.16,0,.23-.57-.13-1.14-.25-1.71-.35a2.1,2.1,0,0,0-.51-.33,1.79,1.79,0,0,1,0,.24l-.8-.11c-.55-.15-1.08-.27-1.58-.37l.42-.22c.72.3,1.89.34,5.83.78l2.57.34a3.3,3.3,0,0,0-1.56.31,3.17,3.17,0,0,0,1.6,1,19.29,19.29,0,0,1,4.67,2,16.57,16.57,0,0,1,4.86,4.8c.13.2.26.42.39.64m-21.52-9.93a7,7,0,0,0-1.24,0,5.15,5.15,0,0,0-2.26-.56l.13-.28c1.16-.07,2.36-.2,4.13-.41a4.89,4.89,0,0,0-2.93-1.14c1.34,0,2.75-.06,4.65,0a3.42,3.42,0,0,0-1.43-.84c1,0,2.06,0,3.31-.07-.71-.61-3.28-1.33-5.45-1.6l-.54-.06.13-.33c1.63.21,3.37.46,5.68.87a4.37,4.37,0,0,0-1.38-1c1.47.51,3.09,1,5.1,1.53a23.16,23.16,0,0,0-5.93-3.47,45.06,45.06,0,0,1,7.83,2.56,2.07,2.07,0,0,0-.35-.46l.67.57a67,67,0,0,0-10.12,4.65M348.12,85a16.83,16.83,0,0,0-5-5l-.49-.29a19.45,19.45,0,0,1,7,4.72l-1.09.38-.38.14m1.69-.6a9,9,0,0,0-2.51-3.37c1.23.9,2.56,1.85,4.13,2.84l-1.62.53m2.17-.7a49.79,49.79,0,0,0-6.15-5.65,23.24,23.24,0,0,0-2.41-1.6l.47.23a40,40,0,0,1,9.22,6.66l-1.13.36m1.68-.52a23.75,23.75,0,0,0-6.75-6.59c-.75-.48-1.47-.9-2.13-1.25l.35-.2,1.68.89a52.27,52.27,0,0,1,8.26,6.74l-1.41.41m-3.79-7a25.49,25.49,0,0,0-2.76-1.87l.16,0c.71.35,1.72.86,3.22,1.69a29.35,29.35,0,0,1,4.85,3.82c.73.72,1.56,1.41,2.37,2.21l-1.9.52a31.15,31.15,0,0,0-5.94-6.34m-1-13.18-.31.18c.14-.45.31-1,.55-1.75a.36.36,0,0,0,0,.1,5.35,5.35,0,0,0-.22,1.47m.16,1.05c-.36.25-.7.5-1,.76l.07-.14L349,64s0,.08,0,.12m.52-7.83c-1.89,3.65-2.52,6.3-2.47,7.89-.53.35-1.08.72-1.63,1.11.23-.65.51-1.42.86-2.35.92-2.22,1.63-4.45,2.53-6.76a27.51,27.51,0,0,1,2.93-5.92,1.82,1.82,0,0,1,.89.1c.53.33,0,1-.22,1.28l.16-.16a34.53,34.53,0,0,0-3.05,4.81m-4.8,11.24c.81-.72,1.66-1.45,2.56-2.19l0,0c-.9.69-1.77,1.42-2.59,2.18,0,0,0,0,0,0m-5.21,5.89q.06-.39.12-.87l.13-.15c0,.23,0,.44,0,.64s-.19.25-.29.38m1.1,7.13a31,31,0,0,1,4.82,3,19,19,0,0,0-5.09-2.34c-.86-.27-1.62-.48-2.29-.65l.19-.38.22-.42c.51.18,1.2.43,2.15.82m3-2-.24-.11c-.73-.37-1.41-.68-2-.94l.17-.12c.43.22.92.48,1.5.8l.6.37m-1.75-8a.93.93,0,0,0-.13.15c0-.12,0-.24.05-.37.53-.53,1.07-1.05,1.63-1.57,0,0,0,0,0,.07-.54.56-1.07,1.13-1.56,1.72m1.48,3.8-.35.2-.07,0,.4-.18h0m-6.48,3-.19.32q0-.25,0-.54a.92.92,0,0,0,.22.22m-.26-.88v-.16l1-1.23a4.65,4.65,0,0,0,.25.77l-.33.51a2.49,2.49,0,0,0-.87.11m-1.45,1.7a10.43,10.43,0,0,0,.37,1.59l-.19.36h0c-.07-.51-.14-1.13-.21-1.9l.06-.06M351,50.36a14.63,14.63,0,0,0-1.76,2.32A39.53,39.53,0,0,0,346,59.52a32.8,32.8,0,0,0-2.45,7.23q-.6.47-1.17,1c0-.08,0-.15.05-.23.78-2.58,1.43-5.12,2.41-7.86a29.23,29.23,0,0,1,2-4,5.88,5.88,0,0,0-.66.54c.56-1.25,1.2-2.56,2-3.94-1.57,1.15-5,6.81-6.37,11.75l-.06.16c-.21.58-.4,1.14-.59,1.68a29.41,29.41,0,0,0-.89,2.94,70.26,70.26,0,0,1,2.32-9.87,2.67,2.67,0,0,0-.31.34c.57-1.42,1.23-2.92,2-4.55-1.38,1.23-4.63,6.56-5.88,11.39a26.09,26.09,0,0,0-1,6.72c-.26.31-.5.61-.73.9.29-4.32,1.29-8.48,3.07-14.31a27.1,27.1,0,0,0-3,6.45c.11-.51.23-1,.35-1.58a25.44,25.44,0,0,0-3,7.71c.15-1.13.36-2.34.66-3.64-.86.91-1.91,4.12-2.32,7.46a13.18,13.18,0,0,0-1.29,4.67,12.35,12.35,0,0,0-.45,2,6,6,0,0,0-1,2.57l-.07.11a44,44,0,0,1,1.19-9.18,42,42,0,0,1,5.88-13.34c.28-.29.65-.78,1.27-1.58.42-.57.83-1.14,1.23-1.76a40,40,0,0,1,5.31-5.36,24.9,24.9,0,0,1,4.29-2.78,8,8,0,0,1,2.28-.76m-18.9,17.1c-.06.12-.11.24-.16.36,0-.09,0-.18,0-.27l.18-.09M329.49,100c.53,0,1.07.06,1.62.1a4.26,4.26,0,0,0,.06.57h-.09a1.94,1.94,0,0,0-.27-.24l-.15.22h-2.07a3.5,3.5,0,0,0,.28-.66h.62m-.35-5.57-.06-.07,0,0h.07s0,.06,0,.09h0v0m-.07-1.49a9.94,9.94,0,0,0-.84-1c.11-.55.23-1.1.37-1.66a14.56,14.56,0,0,0,.45,1.65c0,.15,0,.31,0,.47s0,.34,0,.51m-.44-15.67c-.05.17-.11.33-.17.51l-.24-.94a1.7,1.7,0,0,0,.41.43m-.42,34.33h0s0,.1-.05.14l0-.13m-.25,4,.56.07a1.36,1.36,0,0,0,0,.17,4.4,4.4,0,0,0-.6-.24M327.31,100c-.18.2-.39.46-.64.79h0l.62-.81h0s0,0,0,0M327,90.6a.5.5,0,0,1,0,.13l-.22-.2c-.25-1.17-.8-2.07-2.47-6.1a19.81,19.81,0,0,0,2.24,2.73A8,8,0,0,0,327,90.6m-3.56-4.27c.4.83.79,1.56,1.15,2.19a3.07,3.07,0,0,0,0,.59c-.31-.76-.7-1.67-1.18-2.78m.26,4.3c-.55.19-1.22.83-2.83,2.85a31,31,0,0,0-4,7.12c-.26-.35-.51-.7-.77-1,1.11-1.44,2.51-3.46,3.78-5.13,1.64-2.22,2.86-3.56,3.44-4.55l.37.74m-.89-1.86a2.84,2.84,0,0,0-.9.67,8.77,8.77,0,0,0,.65-1.21c.08.18.16.36.25.54m-3,1-.39.6c-.84,1.31-1.63,2.48-2.47,3.9A17.28,17.28,0,0,0,314.86,98c-.43-.5-.86-1-1.28-1.44,1.54-1.47,3.4-3.46,4.94-5.23.46-.55.89-1,1.29-1.5m-4.16,9.12a0,0,0,0,0,0,0l-.44-.54a11.51,11.51,0,0,1,1.37-1.66l.35-.36c-.43.79-.85,1.64-1.27,2.57m.08,4.55.41.61-.59,1.26a7.15,7.15,0,0,0,.86-.84c.19.28.37.56.55.84-.34.7-.67,1.45-1,2.25a14.15,14.15,0,0,0,1.41-1.6l.55.88-.5.82a4.14,4.14,0,0,0,.7-.49l.35.59a8.23,8.23,0,0,0-.42,1.09,5,5,0,0,1,.61-.78c.57,1,1.06,1.82,1.48,2.57a6.36,6.36,0,0,0-2.68,1,6.13,6.13,0,0,0,2.1.36,16.73,16.73,0,0,0-4.37,1.34c.75.46,3.09.2,4.78.21a8.09,8.09,0,0,1,1.5.16l.15.7-.09.13c-.58.88-1.12.36-1.54,1.38a3.41,3.41,0,0,0-.43.37c-.59-1-1.6-.71-3.39-1.74a13.34,13.34,0,0,0-2.28-1,10.17,10.17,0,0,0,.18-2.51c-.06-1.75-.28-3.57-.3-5.3,0-4.32-.89-6.78-2-7.12-.5,1.16-.16.91.31,5a42.79,42.79,0,0,0,.53,5.17,42.64,42.64,0,0,1,.82,4.56c-.54-.15-1.08-.27-1.63-.37a56.27,56.27,0,0,1-.9-7.32c-.24-4.2,0-6.35-.8-7.19a2.67,2.67,0,0,0-.63.8.74.74,0,0,1,0-.14,2.93,2.93,0,0,0,.28-.76,5.83,5.83,0,0,0,1.63-.12c-.06.09-.13.18-.19.28a8.36,8.36,0,0,0,.8-.58c1.24,1.83,2.59,3.77,3.79,5.45M311.22,97a12.11,12.11,0,0,0-1.73-.13c-.05-.13-.11-.28-.18-.44a1.46,1.46,0,0,0,.84-.54A1.57,1.57,0,0,0,308.6,95c-.18-.29-.38-.6-.62-.93a1.18,1.18,0,0,0,.43-.32q.76.63,1.62,1.41c.14.19.29.39.42.6l.77,1.16m-3.34-.12a14.27,14.27,0,0,0-2.55.35,3.14,3.14,0,0,0-.23-.45l2.65-.12.13.22M307.49,93a3,3,0,0,0-.39-.08l-.33-.39-.2-.22c.29.21.6.44.92.69m-1.25,1.39.46.61h-.35l-1.28.08a3.4,3.4,0,0,0-.09-.69c.46,0,.88,0,1.26,0m-1.38-1.62-.7,0c-.72,0-1.45,0-2.19,0l-.06-.3c0-.1,0-.19,0-.29a16.61,16.61,0,0,0,1.87-.08c.35.25.67.46,1,.65l.08.09m-3.43-2.52c-.08.08-.14.16-.21.24h-.06a28.65,28.65,0,0,0-4.09.22,3.64,3.64,0,0,0-.11-.39l.21,0c1.71-.16,3-.18,4-.23l.25.18m-2.33-1.71H299a24.6,24.6,0,0,0-3.6.45,2.83,2.83,0,0,0,0-.29c1.73,0,2.8,0,3.42-.36l.29.19m-2.3-1.42h0l0,0m-1.67,3.38.63-.07c0,.15,0,.31,0,.51l-.73.16c0-.21.08-.41.11-.6m3.33,2.52c0-.34,0-.65,0-.93h2c-.06.2-.11.41-.17.66a18.7,18.7,0,0,0-1.9.25m2.74,8.56c.36-1.86.61-3.46.76-4.81h1.27c-.14.67-.33,1.52-.58,2.59a45.47,45.47,0,0,0-1.25,6.39c-.23,2.18,0,4.49-.74,7.15a11.94,11.94,0,0,0-1.32.51l-.1,0-.17-.1-.08-.1c.83-2.13,1.6-7.47,2.21-11.64m-1.62,13.59.09,0a1.62,1.62,0,0,0,0,.38l0-.06,0-.3m4-19.91c-.48.06-1,.14-1.49.23,0-.44,0-.85,0-1.22h.16l1.53.08a8.32,8.32,0,0,0-.24.9m-2.68,17.55a12.27,12.27,0,0,0,1.34-4c.34-2,.7-4.09,1.2-6a48.6,48.6,0,0,0,1.75,9.37l-1.18,0a14.39,14.39,0,0,0-3.11.61m4.61-4c.3,1.09.66,2.19,1.05,3.38-.22,0-.46,0-.74,0-.07-1-.18-2.12-.31-3.35m.8-3.92a51.62,51.62,0,0,0-.64-6.66l2.44.13h.16c-.23.73,0,1.44.09,5.49a34.45,34.45,0,0,0,1.08,8.82,3.09,3.09,0,0,0-2-.43c-.32-2.21-.88-5-1.1-7.36m4,5.6a21.56,21.56,0,0,0,1,2.44l-.74-.09c-.07-.75-.14-1.54-.22-2.35m11.18,5.53c0-.12.09-.24.13-.37s.15.07.22.27.1.14.15.19a.07.07,0,0,0,0,0l.09,0s-.08,0-.12,0-.1,0-.15-.19-.08,0-.11,0l-.24.1m1-1.18,0,0s0,0,0,.08v0m.84-3.21a6.57,6.57,0,0,0-.82-.53,15.23,15.23,0,0,0,1.28-1c-.16.5-.31,1-.46,1.53m1.54-4.73c-.93,1.13-1.83,2.36-2.92,3.92l-.12-.26c-.05-.24-.11-.49-.17-.73.8-.67,2-2,3.33-3.24l-.12.31m.14,3.29c.1-.48.2-1,.3-1.49.21-.22.43-.44.63-.66-.09.21-.19.42-.28.64s-.25.56-.37.85l-.28.66m1-4.62a502804602198.86,502804602198.86,0,0,1-.2.22v0l.2-.19m.15-8.36a1.59,1.59,0,0,0-.2.24l.19-.3a.13.13,0,0,1,0,.06m-1.81,6.45.11,0a1,1,0,0,0-.21.1,1.47,1.47,0,0,0,.1-.13m-3.81,3.06-.17-.39,1-1a10.51,10.51,0,0,0-.83,1.38m1.65,1.49c-.22.39-.44.8-.66,1.24-.06-.22-.12-.43-.19-.64a8.51,8.51,0,0,0,.85-.6m-1,.12c-.1-.26-.19-.53-.3-.79.75-.9,1.84-2,2.9-3.21l.13.17c-.8,1.16-1.64,2.41-2.73,3.83M320,105.25l-.13.18s0,0,0,0l.14-.16m-2.53-3.81-.15-.21c.45-.57.94-1.26,1.44-2-.43.69-.86,1.43-1.29,2.21m2.63-1.63c-.61.9-1.21,1.85-1.8,2.89a3,3,0,0,0-.19-.3c.64-.82,1.32-1.71,2-2.59m1.33-4.34-.68.88.22-.3c1.53-2.19,2.7-3.42,3.28-4.35.08.17.17.33.26.49-.58.25-1.22,1-3.08,3.28m3.28-1.67a.57.57,0,0,0,.08-.13l.05.07-.13.06m1.42,1.14,0,.34c-.57.22-1.15.88-2.9,3.22a68,68,0,0,0-3.86,5.94c-.11-.21-.23-.41-.34-.61.89-1.18,1.84-2.47,2.73-3.64,2.11-2.84,3.39-4.62,3.73-5.81.21.19.44.38.67.56m.17-1.39-.3-.12a7.33,7.33,0,0,0-.23-1.22,11.06,11.06,0,0,0,.58,1.07c0,.09,0,.18-.05.27m2.7,14c.09-.45.18-.91.28-1.38l.59-.08c0,.15-.09.32-.14.48s-.13.48-.2.73l-.53.25m2-1.64c.06.27.13.54.2.81-.34.09-.69.19-1,.31,0,0,0,0,0-.07l.07-.78a1.4,1.4,0,0,1,.12-.18h0q.32,0,.63-.09m-.95-3.68h.21v0l-.21,0m.42,1.29c0,.06,0,.13,0,.2l-1-.1.93-.1m1-10.2c0-.23,0-.5-.08-.84h.15c0,.3-.05.58-.07.85m.11,14.48.09.24c-.55.2-1.12.45-1.68.71.5-.3,1-.62,1.59-.95M329.39,112q.14-.61.27-1.26c.81-.51,1.61-1.06,2.51-1.69.14.28.28.56.43.82-.77.49-1.49,1-2.18,1.44l-1,.69m.27,1.64,3-2q.39-.22.78-.48c.24.37.49.75.73,1.14a21.4,21.4,0,0,0-4.5,1.3m4.18-4.52-.15-.33a4.66,4.66,0,0,0,.64,0v0l-.49.29m-.25-16.93.1,0h.07l-.17,0m-.47,9.84.16,0c.1.33.21.68.34,1.05l-.14-.07-.36-1m.77,5.81c0,.09.09.19.13.29a4.92,4.92,0,0,0-.46.37l-.14-.33.47-.33m-.7-.25-.09-.23-.06-.26.42-.2c.09.19.18.39.26.58a4.19,4.19,0,0,0-.53.11m-.5-6.74c-.09-.22-.17-.44-.25-.63h.4c0,.21.09.43.14.66l-.29,0m.6,5.67a2.74,2.74,0,0,0-.41,0l-.25-1s0,0,0,0,0-.1,0-.14a.15.15,0,0,0,0-.09l-.12-.5h0c0,.06,0,.12.07.19l.75,1.6m.95-23.93-.09.23H334a3.31,3.31,0,0,1,0-.33l.25.11m-.35-1.29c0-.24,0-.48,0-.72.06.24.13.48.2.69l-.16,0m.84,24.67c-.47-1-.85-2-1.16-2.75h.1q.1.28.21.6c.28.72.56,1.44.85,2.15m-.4-15.1-.1,0h-.12l.24,0s0,0,0,0m.24,5.36a.43.43,0,0,1,0,0l-.4-.06h.39m-.05,14.32.47-.27c.43.93.87,1.9,1.36,2.93l-.75,0a10.2,10.2,0,0,0-.37-1.05c-.21-.53-.45-1.08-.71-1.63m.76,4.34.17,0,0,.1-.2-.08m.6,0a5.46,5.46,0,0,1,.58,0q.36,0,.72.06l.76,1.52a11.27,11.27,0,0,0-2.05-1.26c0-.1,0-.2,0-.31m2-1.52-.45,0c-.33-1.14-.74-2.41-1.2-3.67h0c.5,1.18,1,2.41,1.64,3.72m-1.66-16.81-.09-.24h0s0,0,0,0,.08.14.12.21h-.07m.59,10.11-.12.05c-.09-.23-.17-.46-.26-.68-.58-1.5-1-2.78-1.41-3.87.16.43.35.91.56,1.45.38,1,.81,2,1.23,3m.68,2.31a1.11,1.11,0,0,0,.19-.09c.05.16.11.32.16.47.44,1.21.76,2.69,1.4,4.12l-.29.08h0c-.41-1.41-.92-3-1.46-4.58m1.83.88c-.12-.52-.24-1.06-.38-1.59l.24-.11.24.52c-.16.22-.18.51-.1,1.18M338.08,96.3c.08.16.17.32.27.49l-.13,0-.05,0c-.11-.15-.23-.29-.34-.43h.25m.84-3.9-.84-.13.7,0c1.13.13,2.23.29,3.35.48,0,.13,0,.24,0,.36-.63-.18-1.26-.35-1.89-.49a1.93,1.93,0,0,0-.6-.22v.09l-.69-.13m.78,9.29c.64,1.06,1.28,2.11,1.93,3.2l-.73.21q-.18-.55-.36-1.08c-.3-.84-.58-1.62-.84-2.33m.1,10.84a7.61,7.61,0,0,0,.28.75H340c-.06-.23-.12-.49-.18-.75m1.44.23c.1.25.21.51.31.78l-.25-.07-.06-.71m.41-1.61c.42.95.9,1.93,1.44,3l-.69-.29c-.2-.82-.46-1.72-.75-2.67m.55-1.85a.77.77,0,0,0,0,.15c-.23-.79-.47-1.61-.72-2.43l.43-.17a17,17,0,0,0,.27,2.45m.94-4.81c-.31-.6-.62-1.17-.94-1.72l-.14-.25,1.31,1.91-.23.06m.56,4.08.33.64a.92.92,0,0,1,0,.16c0,.61,0,1.22,0,1.83,0-.21-.05-.43-.08-.63-.11-.76-.2-1.42-.28-2m.43,3.34a18.64,18.64,0,0,0,.67,3.1l-.62-.35a21.32,21.32,0,0,0-.05-2.75m.27-6c.09.13.18.27.28.4a1.12,1.12,0,0,0-.37.61c-.13-.28-.25-.56-.39-.84l.48-.17m-2.23-11.43.25,0,.06.12-.24-.06a.86.86,0,0,0-.07-.1m-1.35.93H341l0,0-.18,0m.86,1.09.63,1c-.5-.11-1.16-.24-1.91-.37l-.48-.74,1.76.11m1.65-3a6.41,6.41,0,0,0-.64-.64L343,93c.09.18.2.38.33.59h0m.05,2.64h0l-.37-.55h0l.35.56m1.44,7.88c-.54-.92-1.1-1.82-1.66-2.68-.89-1.33-1.63-2.48-2.26-3.46.5,0,1-.09,1.56-.16l.48.76c1,1.72,1.95,3.41,3.06,5.18-.4.11-.79.23-1.18.36m.78,6.13c0-1,.07-1.81.08-2.43.12.17.24.36.36.54,0,.4,0,.87-.05,1.41s0,1.16,0,1.74c-.13-.4-.27-.83-.42-1.26m0,2.24.61,1.35c.09.76.21,1.55.36,2.38l-1-.64c0-.87,0-2,0-3.09m1.46-7.1a1.71,1.71,0,0,0-.86,1.2c-.17-.33-.36-.67-.54-1,.44-.1.89-.19,1.34-.27l.06.07m-1.3-5c-.75-1.41-1.45-2.62-2.09-3.64h0c.35.52.77,1.13,1.27,1.85,1.17,1.56,2.15,3,3.44,4.59l-1,.23c-.56-1-1.13-2.06-1.64-3m3.15-6.14.46.1c.54.26,1.28.62,2.33,1.18a21.47,21.47,0,0,1,5.48,5,1.86,1.86,0,0,0-.84.69,1.65,1.65,0,0,0,1.51.51c-.55.23-1,.46-1.48.69a1.09,1.09,0,0,0-.36,0c-.54,0-1.08,0-1.61,0a8.37,8.37,0,0,0-1.06-1.63c-.91-1.07-1.78-2.12-2.61-3.22l.09,0c1.5,1,3.25,1.57,4.82,3.25a6.4,6.4,0,0,0-2.27-3c-1.34-1.06-2.68-2.08-3.95-3.21-.17-.16-.34-.3-.51-.44m1,6.34.27.31c.47.52.94,1.12,1.45,1.73l-.43,0c-.41-.7-.84-1.4-1.29-2.09m2.9,1.91c-.38-.6-.79-1.25-1.23-1.9a24.35,24.35,0,0,1,2,1.85l-.77,0m-.41,2.34c.45,0,.9,0,1.36,0l.44.36a3,3,0,0,0-.76,1.87c-.27-.66-.62-1.42-1-2.23m.28,2.88c.2.22.4.44.6.68-.06.59-.11,1.3-.17,2.15,0,.62,0,1.22,0,1.83-.26-2-.34-3.54-.41-4.66m1.6-2.87h.31l-.2.17a1.74,1.74,0,0,0-.11-.18m10.26-20.16h.28l0,0,.08,0-.4,0M351.93,62.28l.39-.8.46-.33-.36.12a29.7,29.7,0,0,0,1.19-3,3.3,3.3,0,0,0,.07,2.48,2.28,2.28,0,0,0,1-1.18,1.79,1.79,0,0,0,.25,1.14c-1,.48-2,1-3,1.57m1.12.89c.48-.28,1-.56,1.45-.83a3.69,3.69,0,0,0-.56.56l-.89.27m5.26-2.69c.44-.19.9-.37,1.35-.55l-.25.26c-.39.09-.76.19-1.1.29M325.8,79.22A15.68,15.68,0,0,1,324.07,74c.33,1.24.74,2.49,1.14,3.59.2.58.4,1.1.59,1.6m-4.68,1.64c-1.49-3.55-3-7-4.38-10.85a2.42,2.42,0,0,0,.39,0c.51,1.45,1,2.87,1.55,4.21.86,2.52,1.68,4.72,2.44,6.66m-.76-6.68-.19-.52a3.3,3.3,0,0,0,.17-.48c0,.36,0,.69,0,1m-3.5-4.93a1.88,1.88,0,0,0-.59-.62c-.14-.42-.27-.85-.41-1.28a1.69,1.69,0,0,0,.33,0c.23.64.45,1.29.67,1.93m-1-2.83a3.74,3.74,0,0,0-.4-.31q-.36-1.23-.69-2.55l.08-.13c.33,1,.66,2,1,3m1,8.2.18.48c-.24-.14-.56-.31-1-.5a4.31,4.31,0,0,0,.79,0m-.71,2.82a1.89,1.89,0,0,0,1-.74l-.27-.2a2.64,2.64,0,0,0,.72,0c.17.43.33.85.49,1.27l.36.84c-.24-.13-.55-.28-1-.45a1.48,1.48,0,0,0,.26-.3,2.1,2.1,0,0,0-1.59-.47M313.35,60a2.88,2.88,0,0,0-.56-.51c.19.11.37.22.54.3a1.49,1.49,0,0,1,0,.21m-1.42-5.9-.3-.26c.06-.15.12-.28.16-.4,0,.21.09.43.14.66M294.23,88.8a0,0,0,0,1,0,0v0h0m-.79-3.09-.62.06a1.45,1.45,0,0,0-.2-.32l.82.26m-1.72.22c-.32.06-.64.12-1,.2l-.13-.07,0,.11-.75.19a4.36,4.36,0,0,0,0-1.2l.74-.26,1.13.28a2.41,2.41,0,0,1,0,.75m-2.16,1.93.66-.11a1.8,1.8,0,0,1,0,.22l-.74.26.1-.37m2-.32h.05v0h-.05v0m-3.33-.68v0h0l0,0m-.76-2.52-1.26.3-.26.06a2,2,0,0,0-.44-.12,3.39,3.39,0,0,0,1.2-.33l.76.09m-2.69.29-.12,0-.09,0-.1-.05h.31m-.3,4h.1c-.13.16-.26.32-.39.5a20.38,20.38,0,0,0-1.1,1.75,15,15,0,0,1,1.39-2.26m.26-.2-.17.08a14.71,14.71,0,0,1,1.81-1.89,17,17,0,0,0-1.64,1.81M380,115.58l.19.21-.11-.05a.8.8,0,0,0-.08-.16m-3.66-5.51c-.56-.47-1.14-.93-1.73-1.36l.89.33c1.82.6,3.78,1.76,6.3,2.26l-.28-.17,3.08,1.18c-.82-1.06-4.46-3.32-7.62-4.54l-1.47-.57-.27-.12a35.36,35.36,0,0,1,13.92,6,16.24,16.24,0,0,0-4.76-4,33.53,33.53,0,0,0-8.24-3.37l-.07,0c1.53.18,3.17.37,5,.55a38.26,38.26,0,0,0-9.2-2.57c3.47.07,7,0,11.52,1.75-1-1.43-6.38-3.27-10.64-3.33l-1.53-.06a3.76,3.76,0,0,0-1.49-3,5.86,5.86,0,0,0-4.82-.26c-.91.1-1.82.25-2.62.38s-1.51.29-2.14.43A14.82,14.82,0,0,0,357.05,95a14.6,14.6,0,0,0-6-3.58c3,.41,6.19.83,10.25,1.15-1.6-.77-7.2-2.19-11.76-3a47.37,47.37,0,0,0-6.57-.73l1.39-.62c.76.15,2,.11,5.77.71,4.57.9,8.9,1.68,15.23,2.48a57.75,57.75,0,0,0-9.11-2.82l4.65.61c2.6.38,5.44.4,8.65,1.56-1.44-1.59-7.82-2.89-12.73-3.68a39.44,39.44,0,0,0-6.88-.71,26.28,26.28,0,0,1,5.21-.57c4,.07,7.83-.19,12.68,0L370.34,87c1.84.92,4.14,1.5,5.85,3.71-.09-.82-1.18-2.35-2.87-3.46-.6-.41-1.25-.81-1.9-1.19l.31,0a5,5,0,0,0-1-.41c-.8-.45-1.61-.88-2.41-1.28a12.67,12.67,0,0,1,5.14.54c-.57-.71-2.43-1.37-4.58-1.57-1.08-.12-2.17-.16-3.27-.19-.41-.17-.8-.31-1.17-.45l1-.17c1.49-.14,3-.28,4.5-.37l1.06.21.68.29a32.33,32.33,0,0,1,9.7,7.37c-.28-1.13-2.11-3.78-4.49-5.88a27.52,27.52,0,0,1,5.47,3c-.42-1.17-3.22-3.67-6.19-5a32.51,32.51,0,0,1,8.06,1.87,16.58,16.58,0,0,0-5.94-2.63,31.39,31.39,0,0,0-7.34-.89l-.27-.1a52.47,52.47,0,0,1,5.63-.6c2,0,4.23-.52,6.34.43-1.05-.81-3.17-1-5.59-1a46.88,46.88,0,0,0-8.67.52h-.08a2.86,2.86,0,0,0-1.61.19l0,.07c-2.38.4-4.86.92-7.33,1.53a16.54,16.54,0,0,0-3.83-5.3c-.63-.59-1.22-1.1-1.77-1.54a44.39,44.39,0,0,1,6,1.45c-.53-.87-3-2.17-5.45-2.88,2.34-.2,4.87-.37,8-.71-1.38-.51-6.08-1-9.89-.7l-.34,0a40.63,40.63,0,0,1,7.08-1.71,4.58,4.58,0,0,0-1-.14c1-.12,2.08-.21,3.2-.27a12.13,12.13,0,0,0-3.45-.41A55.75,55.75,0,0,1,367,69c-1.71-.88-8.07-1.43-13-.58l-.85.14a21.3,21.3,0,0,1,8.5-1.74,14.13,14.13,0,0,0-7.15.17,28.31,28.31,0,0,0-4.65,1.52A39.93,39.93,0,0,1,364.4,65a13.35,13.35,0,0,0-3.6-.34,39.8,39.8,0,0,1,6.43.06c-1.45-.84-6.28-1.51-10.88-.93a34.52,34.52,0,0,1,14-.81,21.79,21.79,0,0,0-6.51-1.35,23.41,23.41,0,0,0-3.74,0c4.08-.84,8.12-.85,14-.29a24.65,24.65,0,0,0-8.89-1.79,13.3,13.3,0,0,1,1.39-.1c3.7,0,7.22.88,12.42,1.82a29.37,29.37,0,0,0-9.15-3.18,26.79,26.79,0,0,1,2.85-.07c1.07.1,2.19.09,3.36.17a4.26,4.26,0,0,1,.53.44,2.24,2.24,0,0,0-.33-.43,10.74,10.74,0,0,1,4.61,1.3c-.5-.84-2.42-1.9-4.77-2.32a26.16,26.16,0,0,0-7.25-.58l.85-.37c2.86-1,5.53-2.22,9.85-2-1-.95-5.36-1.32-8.47-.2-3.5,1.11-5.29,2.22-5.77,3.21-.24.05-.47.12-.69.18l-1,.2c.56-.43,1.34-1,2.51-1.81a40.3,40.3,0,0,1,11.4-4.59c-1.46-.37-6.44.22-10,2-3.82,1.88-5.63,3.73-6.09,4.95l-.31.09c-.67.18-1.34.4-2,.63.62-.64,1.54-1.54,3-2.86,1.79-1.46,3.7-2.77,5.67-4.29s4.13-3.22,7.38-3.61a8,8,0,0,0-5.19.87,47.39,47.39,0,0,0-6.4,3.91,33.47,33.47,0,0,0-3.25,2.52A43.94,43.94,0,0,1,364.72,51,17.57,17.57,0,0,1,372,46.89a10.2,10.2,0,0,0-5.22,1.22,22.82,22.82,0,0,0-6.17,4.69c-1.12,1.2-2,2.29-2.79,3.26.08-.13.16-.26.25-.39,1.24-1.62,2.35-3.36,3.6-5.06a27.36,27.36,0,0,1,2.15-2.6,15,15,0,0,1,1.35-1.27,6.7,6.7,0,0,1,.79-.58l.42-.29a.2.2,0,0,1,.29,0c0,.16-.13.17-.18.24l.16-.06s.09-.07.13-.12a.27.27,0,0,0-.17-.24c-.37-.06-.33.05-.53.07s-.63.22-1,.38a12.74,12.74,0,0,0-2.34,1.55,27.48,27.48,0,0,0-4.37,4.9c-.35.41-.66.81-1,1.2.59-1,1.2-2,1.79-3.14a24,24,0,0,1,4-5.55c-1.63.29-5,4.29-6.95,7.63a25.24,25.24,0,0,0-1.88,3.39A29.47,29.47,0,0,1,356,52.51a5.51,5.51,0,0,0-1.81,1.85,40.1,40.1,0,0,1,5.48-8.47c-1.7.7-5.72,5.2-7.76,9.57-.89,1.74-1.73,3.27-2.28,4.61.07-.19.13-.37.21-.57A90.3,90.3,0,0,1,356.64,47a22.45,22.45,0,0,0-3.73,4,1.73,1.73,0,0,0,.1-.24c.15-.59-.58-.86-.95-.85H352c.28-.39.58-.77.91-1.15A6.29,6.29,0,0,0,351.39,50a9.25,9.25,0,0,0-2.25.39,23,23,0,0,0-6.22,3.54l1.19-1.36a32.92,32.92,0,0,1,4.09-3.68,20.1,20.1,0,0,1,2.56-1.62,15.48,15.48,0,0,1,1.54-.65,5.74,5.74,0,0,1,.86-.26l.44-.11c.08,0,.17-.07.26.09a.55.55,0,0,1-.17.17c.09,0,.37,0,.13-.39-.11-.08-.35-.06-.44-.08a6.29,6.29,0,0,0-1,0,9.81,9.81,0,0,0-2.5.57,16.36,16.36,0,0,0-5.15,3.14A22.79,22.79,0,0,0,341,53.86a.18.18,0,0,0-.07,0c.82-1.17,1.71-2.31,2.68-3.55,1.53-1.84,2.94-4.22,5.87-5.51-.93-.1-2.87.74-4.59,2.32a44.21,44.21,0,0,0-5,5.43,27.68,27.68,0,0,0-3.08,5c-.13.14-.25.29-.36.43a69.27,69.27,0,0,1,5-9.64,13.57,13.57,0,0,0-3.2,3.37c.49-1.45,1-3,1.55-4.77a38.73,38.73,0,0,0-3.75,7,32.07,32.07,0,0,1,1.74-5.43c-1,.69-2.47,3.59-3.4,6.67.37-2.71.75-5.61,1.15-9.27-.8,1.51-2.31,6.89-3,11.33-.45,2.68-.81,4.77-.93,6.32-.15-1.42-.33-2.83-.58-4.33a32.81,32.81,0,0,1-.83-7.92,11.61,11.61,0,0,0-.69,5c.07,2.16.32,4.47.48,6.66-.37-2.52-.78-5.2-1-8.61-.67,1.46-.77,6.69-.26,10.7.49,4.28.64,6.72,1.22,7.91-.31,1-.57,1.91-.79,2.81,0-.12-.06-.24-.1-.37a2.46,2.46,0,0,1,0,.26c-.07-.73-.3-1.91-.69-4.28-.39-3.92-1.83-7.38-2.36-12.67-.78,1.46-.24,6.66.42,10.45.11.84.21,1.61.32,2.31a69.51,69.51,0,0,1-2.15-8.92c-.53,1.51-.09,6.8,1.06,10.7l.94,3.51c-.32-.82-.65-1.66-1-2.52a21.33,21.33,0,0,1-1.92-5.83c-.47.81-.24,2.72.26,4.81a6.88,6.88,0,0,0-.18,3.63,21.44,21.44,0,0,0,1.79,5.1c.37.73.68,1.38,1,2l-1.32-1.36a9.29,9.29,0,0,0-.82-.86c-.31-.45-.62-.91-.92-1.39-.05-.08-.1-.16-.14-.24a2.47,2.47,0,0,1-.11-.75.88.88,0,0,0-.21.22,12.37,12.37,0,0,1-.71-1.41,6.36,6.36,0,0,1-.39-1.3c-.06-.29-.16-1.5.15-.53a.47.47,0,0,0,0-.35s0-.07,0-.08h0l-.26-.06a28.58,28.58,0,0,0,.2-4.32c.09-3.68,0-7.09-.16-12.12a16.43,16.43,0,0,0-.85,3.88c-.14-2.23-.45-4.61-.78-7.46-.63,1.44-.49,6.45-.71,10.22,0,.24,0,.47-.05.7,0-.46-.11-1-.17-1.54-.52-4.68-.85-9.18-1.88-15.59-.38,1.69-.29,7.06-.06,11.67,0-.19-.05-.39-.07-.6-.58-5.53-.43-10.86-1.82-18.4-.14,2.16-.21,9.23,0,14.95.1,2.23.28,4.12.51,5.69-.21-.52-.42-1.06-.63-1.6-.05-.78-.18-1.93-.38-3.74-.38-4-.78-7.62-1.21-13.06a22.14,22.14,0,0,0-.68,5.56,77.66,77.66,0,0,1-1.71-12.78c-.58,1.31-.79,5.36-.41,9.25a97.41,97.41,0,0,1-1.67-13.79c-.68,1.62-1,7.42-.23,11.9.2,1.44.41,2.69.62,3.76a36.79,36.79,0,0,1-3.39-3.83c-1.48-1.79-3.13-3.67-4.95-6.06.43,1.73,3.34,6.49,6.26,10,1.09,1.09,2,2,2.79,2.82a6.72,6.72,0,0,0,1,2.19c-.46-.39-1-.82-1.62-1.32-3.53-3.09-7.61-5.19-10.46-11.1a10.83,10.83,0,0,0,2,4.94,27.57,27.57,0,0,0,5.17,5.51c3,2.4,4.91,4,6.28,5l.43,1.37c-.65-.6-1.67-1.46-3.32-2.82-3.47-2.93-6.8-5.42-11.37-9.59.71,1.65,4.63,6,8.15,9l.9.76A53.75,53.75,0,0,0,302.28,53a33.08,33.08,0,0,1-6.53-2.78c.75,1.64,5.6,3.84,9.12,5.57l1.82.92c-2.8-.9-5.74-1.5-9.54-2.73,1,1.18,5.62,3,9.18,4.28,4,1.46,5.92,2.74,7.14,2.84,0,.32.08.65.13,1a22.26,22.26,0,0,0-4.17-2.11,34.68,34.68,0,0,0-12.18-3.15c1.34.7,5.85,2.12,9.34,3.68,3.8,1.63,5.93,2.71,7.19,2.72.08.51.18,1,.29,1.57.05.22.09.45.14.68l-2.8-1.35a39.72,39.72,0,0,0-5.52-2.39c-2-.66-4.24-.93-6.67-2.13a9.81,9.81,0,0,0,3.71,2.37,57.18,57.18,0,0,1,5.54,2.49,36.73,36.73,0,0,0,6.13,2.74c.06.22.12.44.17.66-.63-.27-1.45-.6-2.54-1-3.57-1.26-7.06-1.86-11.7-3.49a18.18,18.18,0,0,0,3.25,2.12l.59.27a7.57,7.57,0,0,0-3.76,0,15.92,15.92,0,0,1,3.43,1,34.4,34.4,0,0,0,5,1.85c3.44,1,5.28,1.78,6.43,1.76.31,1,.64,2,1,3-.62-.3-1.68-.69-3.81-1.58a31.86,31.86,0,0,0-5.34-2,15.85,15.85,0,0,1-6-2.64A7.24,7.24,0,0,0,304.46,70c1.66.94,3.78,1.52,5.37,2.31l.31.14a25.35,25.35,0,0,0-5.23-.62c1,.65,4.47,1.7,7.16,2.82,1.61.64,2.82,1.19,3.75,1.54a15.63,15.63,0,0,0-2.79.51,19.49,19.49,0,0,0-5.38-.41,17.6,17.6,0,0,0,3,1.13,12.16,12.16,0,0,0-6.26,4.88,27.32,27.32,0,0,1,6.84-3.42c.56-.17,1.07-.31,1.55-.44l-.22.08c-3.33,1.3-6,3.29-9.54,6.33,1.37-.23,5.12-2.54,8.16-4a35,35,0,0,1,4.34-1.72c1.76.68,2.83,1.14,3.57,1,.27.65.53,1.27.79,1.87-.94-.46-1.05-.54-4.87.91a17.46,17.46,0,0,0-8.67,6.7c1.17-.66,4.3-3.19,7.35-4.39l.51-.22a24.5,24.5,0,0,0-6.4,5.79c1.21-.35,4.2-2.77,6.77-4.18,3.22-1.83,5.08-1.75,5.66-2.77-.58-.41-.82-.76-2.31-.36,1.07-.46,1.74-.85,2-1.37.58,1.35,1.11,2.58,1.6,3.7A23.93,23.93,0,0,0,319,88.35c-2,2.33-3.82,4.6-6,7.58-.68-.71-1.34-1.37-2-2a40.34,40.34,0,0,1,5-4.72c2.89-2.23,4.53-2.4,5.1-3.29-.71-.6-1.12-1.11-4.48.87a15.08,15.08,0,0,0-5.81,6.93A28.49,28.49,0,0,0,304.05,89a20.13,20.13,0,0,0-3.1-2.78,44.63,44.63,0,0,0-6.88-4,24,24,0,0,0-8.79-2.82,45.52,45.52,0,0,1,5.09,2.27l1.73,1a45.15,45.15,0,0,0-15.3-4.55c1.85.73,8,2.77,12.61,5.06l.68.32c-.67-.08-1.36-.15-2.06-.19-.56-.48-1.29-.54-4.93-1.2-3.58-.84-7-1.23-11.49-3.77.37.78,1.81,1.88,3.65,2.86-.49-.13-1-.27-1.46-.42-2.21-.71-4.48-2.08-7.33-3.28,1.21,1.1,6,5,10.7,5.82a44.28,44.28,0,0,0,4.6,1l-.11.07-2,.09a29.71,29.71,0,0,1-11.33-1.63c.87,1.16,5.27,3.14,9,3.2a33.8,33.8,0,0,1-4.56.37A11.45,11.45,0,0,1,265.16,84a7.81,7.81,0,0,0,4.27,3.18,15.12,15.12,0,0,0,5.31.75,20.92,20.92,0,0,0-6.63,6.4c1.08-.51,3.72-2.78,6.23-4.3-.44.41-1,1-2,2-2.14,2.27-4,4.49-6.64,7.83,1.08-.36,3.66-2.51,5.75-4.6A24.56,24.56,0,0,0,269,99.59a45.33,45.33,0,0,1-2.67,5.62c1.29-.52,3.32-4.11,5-6.86a96.69,96.69,0,0,0-4,12.67c1-1.63,3.25-7.16,5.33-11.88a52.68,52.68,0,0,0,0,8.62c.55-1.77.93-7.8,2.14-12.31a28.44,28.44,0,0,1,1-3.21c.09-.17.18-.34.28-.5a20,20,0,0,0-.86,4.24,16.89,16.89,0,0,0,.81,7.47,32.55,32.55,0,0,1,1.37-10.71,12.92,12.92,0,0,1,2.67-4.92l.12,0a13.15,13.15,0,0,0-2.7,5.44,10.16,10.16,0,0,0,1,7.4,17.39,17.39,0,0,1-.27-4.38,13.91,13.91,0,0,1,2-5.76,14.49,14.49,0,0,1,2.89-3.32l.48-.16a13.16,13.16,0,0,0-.86,1.11c-2,3.08-2.73,6.39-3.07,11.06,0,0,.05-.09.08-.14-.26.83-.51,1.69-.79,2.61,1.08-1.21,3.19-6,5.13-9.55a25.93,25.93,0,0,1,1.77-2.7c-.18.53-.4,1.12-.68,1.79a91.8,91.8,0,0,1-7.56,13.9c1.17-.65,3.26-3.21,5.19-6.17-.91,1.51-2,3.09-3.21,4.83,1.57-1,5.74-5.57,7.74-10.19.7-1.6,1.28-3,1.71-4.25l.88-.13a13.61,13.61,0,0,1-.47,1.52l-.29.11.24,0c-.05.13-.1.26-.16.4-1.7,3.31-2.44,7-4.77,11.55a4.26,4.26,0,0,0,1.11-1.09c1.57-.61,4.21-4.78,5.71-8.32-1.18,4-2.7,8.22-1.33,13.94.12-.85.09-2.61.45-4.67a50.83,50.83,0,0,1,1.66-6.5c.34-1,.64-1.94.9-2.78-.27,1.94-.44,3.69-.85,5.66a22.72,22.72,0,0,0-.6,6.89c.26-.73.53-2.23,1.11-4a41.5,41.5,0,0,0,1.57-5.91c.19-1.55.4-2.81.58-3.85l.92,0c0,.43,0,1,0,1.6l-1,.38c.24,0,.57,0,1,0,0,.2,0,.41,0,.64-.36,3.75-1.15,7.24-2,12.45a26.4,26.4,0,0,0,2.28-5.74c-.05.57-.1,1.15-.16,1.74a36.07,36.07,0,0,0-.28,7.61c.3-1.6,1.65-6.77,2.17-11.12.27-2.37.53-4.19.69-5.59.54,0,1.11,0,1.68,0L299.64,96l-1.53.36a4.81,4.81,0,0,0,1.39.31,1.62,1.62,0,0,1,0,.19c-1,4.79-1.76,9.26-2.63,15.85a48.33,48.33,0,0,0,2.5-8.07c-.19,2.55-.3,5.3-.54,8.55a1.45,1.45,0,0,0-1,0s0,0,0,0a1.67,1.67,0,0,0-.77.4c-.26.15-.55.34-.89.58a27.8,27.8,0,0,0-5.78,2.41h5.43l.24-.26.37-.14c0,.13,0,.26,0,.4H298c0-.33.05-.65.07-.93h.05c0,.27,0,.59,0,.94h.28s4,11.93,5.59,16.9a24.78,24.78,0,0,0-.66-6.05,25.62,25.62,0,0,0,1.64,3.2c-.18-1.4-1.24-5.57-2-9.08s-1.69-5.68-2.56-6.53c.67-.17,1.24-.32,1.71-.46-.35.85-.16,1.13.9,4.91a59,59,0,0,0,3.69,10.88,32.73,32.73,0,0,0-.69-4.74c.4.73.85,1.48,1.39,2.28,0-1.1-1-4.19-1.6-6.68-.83-3.12-.85-4.74-1.77-5.25-.13.14-.25.25-.34.37a4.56,4.56,0,0,0-1.18-1.88,5.79,5.79,0,0,0,.61-.17c.73-.06,1.49-.11,2.27-.13.07.57.25,1.41.52,2.76a27.54,27.54,0,0,0,3.34,9.2,20.93,20.93,0,0,0-.53-3.26l.06.14a18,18,0,0,0,2.38,4.51l.13-.31c-.18-.65-.47-1.52-.72-2.56a24.84,24.84,0,0,0-1.44-4.69c-1-2.2-1.5-3.71-1.94-4.68-.1-.42-.2-.8-.3-1.13h.2c.15.47.29.95.42,1.45a4.86,4.86,0,0,0,.06-1.44l1.1.07.5.29.2.16a1.72,1.72,0,0,0-1.64-.39c0,1.09.07.86,1.81,2.78,1.19,1.4,2.17,3,3.81,5l.29-.7a18.24,18.24,0,0,0-2-4.12,12.47,12.47,0,0,0-1-1.35v-.1c1,1,2.1,2.07,3.62,3.36a11.87,11.87,0,0,0-2.59-4.46l.52.13c2.77.66,4.58.49,5.62,1.78h12.23c0-.1-.05-.21-.08-.31a5.64,5.64,0,0,1,.53.31h1.41l-.09-.15-.11,0a1,1,0,0,1,0-.31h0c-.63-.84-1.61-.07-2.51-.51l-.17-.07c1.54-.88,3.24-1.77,5.29-3,.16.25.31.52.46.79a4.78,4.78,0,0,0-1.59.6,4,4,0,0,0-.85.72l-.17.1,0,0a2.18,2.18,0,0,0-.49,1.36c.06.09.1.17.15.26a4.31,4.31,0,0,0,1.2-.63l.2-.13.19.08c.21.11.51.23.86.37.06,0,.13,0,.19.09l.2.08c-.06.07-.13,0-.2-.08l-.19-.09s0,0-.06,0c-.54.14-1-.49-1.48.42h3.61c0-.25.09-.49.13-.7l.65.48.26.22h.84c-.05-.3-.13-.65-.22-1.05.2.13.49.31.82.54.1-.13.2-.21.3-.12h0v0c.13.12.27.26.4.4.08-.1.16-.23.25-.23s0,0-.05-.13c.42.33.92,0,1.51.54l0,0h2.11a2,2,0,0,0-.39-.38c-.56.06-.78.5-1.12-.08a1.59,1.59,0,0,1,.56-.13l-.49-.13a2.07,2.07,0,0,1-1.08-.31c.35.09.72.2,1.08.31a1.89,1.89,0,0,1,1.05.34,1.67,1.67,0,0,1,1.14.38H349c-.48-.4-1-.05-1.44-.4v-.74c.05-1.3,0-1.41,0-2.88a3.92,3.92,0,0,0,0-2.92,12.57,12.57,0,0,0-.19-3.8c.62.89,1.27,1.81,1.92,2.82,0,.44.07.94.11,1.52a29.44,29.44,0,0,0,1.24,6.4h.91c-.1-1.77-.29-2.46-.41-4.36-.31-4.25-.36-6.43-1.24-7.17a2.12,2.12,0,0,0-.67,1.77c-.28-.56-.59-1.15-.91-1.75.55-.08,1.1-.15,1.65-.19l1.39,1.37a13.42,13.42,0,0,0,0,4.37c.32,2.41.6,3.28,1.11,6h1.08c0-.41,0-.1-.06-.53.06.41.14.1.22.53h1.15c-.09-1.65-.18-2-.16-3.6,0-4.79.64-7.1,0-8.19h.2a41.92,41.92,0,0,1,1.37,4.16c.47,2,.83,4,1.23,6.06.15,1,.31.5.37,1.57h1a1.79,1.79,0,0,1,0-.23,17.19,17.19,0,0,0-.51-5.15,19.25,19.25,0,0,0-1.86-6.3l1.18.12h0c.08.12.17.24.25.37a1.27,1.27,0,0,0-.43-.12c-.21,1.3.27,1,1.67,5a15.3,15.3,0,0,1,.59,6.26h1c0-.05,0-.1,0-.15v.15h.68a16.94,16.94,0,0,0-.25-7.17,14.06,14.06,0,0,0-1.47-4l.53.13c.25.62.6,1.46,1.06,2.65,1,2.94,1.7,4.36,1.93,8.4h.58c.07-.43.14.54.18,0,0,.23,0,.11,0,0h0c0-.25,0-.13,0,0h.52a14.06,14.06,0,0,0-.21-7.89,17.13,17.13,0,0,0-1.72-3.94c.49.11,1,.24,1.48.38-.18,1.43.27,1.17,2.18,6.25a25.08,25.08,0,0,1,1.39,5.2h1.33a13.84,13.84,0,0,0-.48-2.83,18,18,0,0,0-2.89-7.34,2.39,2.39,0,0,0,.32.11c.07.1.14.21.24.33a12.56,12.56,0,0,1,2.37,4.5,18.19,18.19,0,0,1,.82,5.23h1.35a18.23,18.23,0,0,0-.08-2.46,15.75,15.75,0,0,0-.87-4.15,18.34,18.34,0,0,1,1.18,2.42,11,11,0,0,1,1.08,4.19h1.43a5.12,5.12,0,0,0-.2-1.61c0-.16-.06-.32-.1-.48.22.8.45.37.64,1.74l0,.35h2.43V128.3c.18-2.57.19-5.05.12-7.6a2.44,2.44,0,0,1,0-.27c.19,1,.36,1.94.54,2.95a38.28,38.28,0,0,1-.14,10.15,17.42,17.42,0,0,0,1-6.31,49.71,49.71,0,0,0-.73-7.68c.28,1.28.51,2.59.72,4a34.12,34.12,0,0,1-.16,9.41,19.49,19.49,0,0,0,1.28-8.18c-.42-2.62.11-3.39-.47-6.14a16.78,16.78,0,0,0-3.3-7.77l.16.12c.7.58,1.39,1.2,2.08,1.85,0,1.17,0,1.39,1.67,6.84,0,0,.36,0,.37.06v-3.15h3.82c-.15-.23-.28-.47-.44-.7l.88.7h4.06c-.91-.84-1.87-.23-2.82-1,1.24.71,2.55.06,3.95,1h1.35c-1.6-1.57-4-2-6.24-3.3-4.05-2.37-6.39-3.32-7.62-3.17M314.14,81.19a19.46,19.46,0,0,0-8.71,7.57c1.18-.7,4.41-3.6,7.4-5.16,3.76-2,5.8-1.73,6.64-2.52-.73-.68-1-1.39-5.33.11M391.35,212v-6.82h5.23a13.3,13.3,0,0,1,4.68,1,8.4,8.4,0,0,0,1.1-4.26,8.22,8.22,0,0,0-1.1-4.26,13.61,13.61,0,0,1-4.8,1.09h-5.11v-6.87h5.47a9.5,9.5,0,0,1,5.24,1.89,7.27,7.27,0,0,0,1.15-4.2,8.65,8.65,0,0,0-1.15-4.57,18.87,18.87,0,0,1-4.39.61H381.85l-.55.61a22.16,22.16,0,0,1,1.47,7.6V210a15.85,15.85,0,0,1-1.59,7.55l.43.79h16.73a12.65,12.65,0,0,1,4,.79,7.7,7.7,0,0,0,1.15-4.08,12,12,0,0,0-1.15-4.74,9.86,9.86,0,0,1-5.05,1.7ZM417,213.79a5.07,5.07,0,0,0-5.17-5.41,5.4,5.4,0,0,0-5.54,5.54,5.36,5.36,0,0,0,10.71-.13m13.2-12.23c0-5,2.62-9.91,8.34-9.91a10.4,10.4,0,0,1,8.33,4.92h1.28a17.46,17.46,0,0,0,2.07-8.15,21.07,21.07,0,0,0-11.44-3.35c-11.68,0-17.71,9-17.71,17.65,0,8.21,5.3,16.13,16.13,16.13a17.62,17.62,0,0,0,13.08-5.42c-.18-2.56-1-4-3.83-5.54-3.11,2.56-5.42,3.84-8.64,3.84-4.93,0-7.61-5.12-7.61-10.17m47.4.37c0,5.23-2.68,10.47-8,10.47-5.48,0-8.21-5.42-8.21-10.78,0-5.11,2.61-10.22,8-10.22,5.53,0,8.21,5.24,8.21,10.53m9.31-.37c0-8.33-5.6-16.49-17-16.49-11.8,0-17.64,8.58-17.64,17.1,0,8.34,5.72,16.68,17,16.68,11.69,0,17.65-8.71,17.65-17.29M528.18,192c0-.24-.06-.49-.06-.73a17.15,17.15,0,0,1,.92-4.68,11,11,0,0,0-5.72-1.53,12.21,12.21,0,0,0-6,1.53,3.58,3.58,0,0,1,.25,1.09c0,1.77-1.34,4.69-2.8,7.48s-3.29,5.66-4.51,7.73c-1.4-2.8-2.86-5.47-4.07-8.27a29.76,29.76,0,0,1-2.5-8,9.49,9.49,0,0,0-5.35-1.53,13.6,13.6,0,0,0-6.09,1.53A16.77,16.77,0,0,1,493,192a30.27,30.27,0,0,1-.18,3.1l-2,16.8a19.64,19.64,0,0,1-1.7,5.41,8.07,8.07,0,0,0,5.23,1.53,9.1,9.1,0,0,0,5.54-1.53,8.11,8.11,0,0,1-1.28-4.26.76.76,0,0,1,.06-.36l.49-13.94,8.15,16.07a6.21,6.21,0,0,0,2.19.36,5.17,5.17,0,0,0,2.25-.42l8.58-16,1.22,13.51a3,3,0,0,1,.06.73,7.7,7.7,0,0,1-1.28,4.32,10.42,10.42,0,0,0,5.78,1.53,10,10,0,0,0,5.66-1.53,26.66,26.66,0,0,1-1.76-6.81Z" transform="translate(-46.19 -32.75)"/></svg>